PathFileType	4	(X/Y/Z)	/home/abdul/Desktop/myosuite/custom_workspace/IK/output/S4_12_3.trc
DataRate	CameraRate	NumFrames	NumMarkers	Units	OrigDataRate	OrigDataStartFrame	OrigNumFrames
200.0	200.0	62	3	mm	200.0	462	923
Frame#	Time	V_Shoulder			V_Elbow			V_Wrist		
		X1	Y1	Z1	X2	Y2	Z2	X3	Y3	Z3

462	2.305	-82.3714525342096	583.8397406920068	275.70475970216387	-142.85422067354068	437.2323196360313	26.177048798030167	-73.09380743913735	291.26647249757787	172.43833048944663
463	2.31	-82.40069721240964	583.716175171855	275.67158226109103	-142.84547240561002	436.93228013856833	26.213065932857877	-73.02630827674905	289.1738752617738	170.71049966800783
464	2.315	-82.42911997954054	583.5870632716446	275.6378370070497	-142.82905226147525	436.62556593988336	26.247623022929105	-72.95536017136563	287.0881951668747	168.96155475466225
465	2.32	-82.45670648769857	583.4524254279	275.60353086366507	-142.80508231408513	436.3126747467405	26.2804614924694	-72.88135115430069	285.0111758634546	167.19261614385658
466	2.325	-82.48344150261403	583.3122904922167	275.5686731948832	-142.7736972034846	435.99411214683226	26.311328564062553	-72.80467535253864	282.9445406166361	165.40485328765857
467	2.33	-82.50930897088178	583.1666957957307	275.5332758398775	-142.73504380759115	435.6703901885359	26.33997820897801	-72.7257317000198	280.88998871853914	163.59948267481388
468	2.335	-82.53429209079196	583.0156871858632	275.49735313796015	-142.68928088339254	435.3420259467197	26.36617207300897	-72.64492262815571	278.8491919581226	161.77776563153822
469	2.34	-82.55837338649786	582.8593190349919	275.4609219432228	-142.63657867935947	435.0095400800261	26.38968037314111	-72.56265274137526	276.8237911607781	159.94100595025964
470	2.345	-82.58153478524916	582.697654220818	275.42400162867875	-142.57711851993224	434.6734553851094	26.41028276046653	-72.47932748356513	274.81539280981013	158.09054735333302
471	2.35	-82.60375769741034	582.5307640783178	275.38661407972575	-142.5110923630059	434.3342953533237	26.427769144885367	-72.39535180129566	272.8255657616485	156.22777079952573
472	2.355	-82.62502309897755	582.3587283232928	275.34878367679994	-142.43870233140697	433.9925827353587	26.441940477298186	-72.31112880971536	270.8558380662875	154.35409164181584
473	2.36	-82.6453116163005	582.1816349476484	275.31053726714055	-142.36016021942226	433.64883811928127	26.452609485185107	-72.22705846695534	268.9076939040374	152.4709566457493
474	2.365	-82.6646036127119	581.9995800866632	275.2719041256377	-142.2756869755107	433.3035785273856	26.459601357691874	-72.14353626280933	266.9825706492042	150.57984087826384
475	2.37	-82.68287927676238	581.8126678586254	275.23291590478584	-142.1855121624003	432.9573160371679	26.462754376597296	-72.06095192734861	265.081856070794	148.6822444775063
476	2.375	-82.70011871175655	581.6210101773407	275.1936065738205	-142.08987339584473	432.61055643162274	26.46192048981903	-71.97968816499376	263.20688567976015	146.77968931473868
477	2.38	-82.71630202628323	581.424726538132	275.1540123471637	-141.98901576338605	432.2637978839194	26.456965824423655	-71.9001194193998	261.3589402316924	144.87371555994753
478	2.385	-82.73140942543284	581.2239437780722	275.1141716023601	-141.8831912245469	431.91752968134745	26.44777113644024	-71.82261067431894	259.53924339317837	142.9658781632366
479	2.39	-82.74542130239426	581.0187958113037	275.0741247877326	-141.77265799394794	431.57223099322647	26.434232195131237	-71.74751629538827	257.74895957936315	141.05774326449273
480	2.395	-82.75831833012485	580.8094233404104	275.03391432003883	-141.6576799089227	431.2283696872561	26.416260099748165	-71.67517891755	255.98919196948938	139.15088454416718
481	2.4	-82.77008155278894	580.5959735449175	274.99358447245805	-141.53852578327627	430.88640119854017	26.393781527188843	-71.6059283825509	254.2609807064303	137.24687952830854
482	2.405	-82.78069247666281	580.378599748091	274.9531812532851	-141.41546874890773	430.5467674552556	26.366738909374707	-71.54008073068817	252.56530128542852	135.34730586121375
483	2.41	-82.79013316020813	580.1574610633128	274.9127522757547	-141.28878558708794	430.2098958646495	26.335090539577884	-71.47793725067234	250.90306313643822	133.4537375592373
484	2.415	-82.79838630301953	579.9327220213905	274.8723466194629	-141.15875605125387	429.8761983627477	26.298810607344258	-71.41978359116602	249.27510840363175	131.56774125940345
485	2.42	-82.80543533335806	579.704552180255	274.83201468389325	-141.0256621832457	429.54607053083316	26.25788916207776	-71.36588893723334	247.68221092479183	129.69087247651265
486	2.425	-82.81126449398738	579.4731257185655	274.7918080345965	-140.8897876249744	429.21989078142263	26.212332005768594	-71.31650525459844	246.12507541246032	127.82467188241333
487	2.43	-82.81585892603714	579.2386210148242	274.75177924260817	-140.75141692756233	428.89801961611425	26.162160515760952	-71.2718666042672	244.60433683786772	125.97066162102755
488	2.435	-82.81920475062472	579.0012202136545	274.7119817177224	-140.61083486004864	428.5807989573285	26.107411398860517	-71.23218852971343	243.12056001782247	124.13034167257373
489	2.44	-82.82128914797504	578.7611087809612	274.67246953627244	-140.46832571979104	428.2685515555922	26.048136378475206	-71.1976675184733	241.67423940390785	122.30518628022112
490	2.445	-82.82210043378676	578.5184750497315	274.6332972640956	-140.32417264672952	427.96158047364463	25.984401816861908	-71.16848053963002	240.2657990725137	120.49664045214192
491	2.45	-82.8216281326029	578.2735097582752	274.59451977538623	-140.1786569436979	427.660168648269	25.916288274913555	-71.14478465830668	238.8955929134288	118.70611655159743
492	2.455	-82.81986304795363	578.0264055827339	274.5561920681611	-140.03205740498134	427.3645785303753	25.843890012263138	-71.12671672792119	237.5639050139419	116.93499098730811
493	2.46	-82.81679732905012	577.7773566657061	274.5183690770814	-139.88464965531935	427.0750518034854	25.76731443080152	-71.1143931605949	236.27095023464656	115.18460101591353
494	2.465	-82.81242453381891	577.5265581428494	274.48110548438854	-139.73670550153994	426.7918091803982	25.686681465001953	-71.10790977574547	235.01687497242028	113.4562416678328
495	2.47	-82.80673968807888	577.2742056693237	274.4444555297254	-139.58849229898755	426.5150502774492	25.602122922714816	-71.10734172654047	233.80175810535985	111.7511628072875
496	2.475	-82.79973934067418	577.0204949479293	274.4084728196196	-139.44027233486952	426.24495356541973	25.513781780339063	-71.11274350353882	232.62561211379645	110.07056633665441
497	2.48	-82.79142161439063	576.765621260783	274.37321013741143	-139.2923022305956	425.9816763958089	25.421811436492117	-71.12414901450568	231.48838437089654	108.41560355467479
498	2.485	-82.78178625249468	576.5097790063492	274.3387192544114	-139.14483236512152	425.7253551008385	25.326374928485485	-71.14157173905531	230.3899585957757	106.78737267736592
499	2.49	-82.77083466074897	576.2531612436082	274.30505074306524	-138.99810632123146	425.47610516525083	25.227644116069094	-71.16500495645622	229.3301564615153	105.18691652976099
500	2.495	-82.75856994477188	575.9959592451063	274.2722537929041	-138.8523603566052	425.23402146764863	25.125798837033095	-71.19442204462437	228.30873934997626	103.61522041585096
501	2.5	-82.74499694262325	575.7383620605798	274.24037603004376	-138.7078229014156	424.99917858884214	25.0210260393512	-71.22977684803774	227.3254102448547	102.07321017331887
502	2.505	-82.7301222525129	575.4805560927929	274.20946334098556	-138.5647140840888	424.77163118440126	24.913518894614356	-71.27100411202719	226.37981575401807	100.56175041884914
503	2.51	-82.7139542555434	575.2227246871549	274.179559701455	-138.42324528673814	424.55141441836116	24.803475897539034	-71.31801998063901	225.47154825180093	99.08164298896409
504	2.515	-82.69650313341442	574.9650477366241	274.15070701099603	-138.28361873164948	424.33854445480563	24.691099956339553	-71.37072255502216	224.60014813162724	97.6336255804936
505	2.52	-82.67778088103046	574.7077013033123	274.12294493401413	-138.146027100055	424.13301900384363	24.576597478731124	-71.42899250907192	223.7651061590575	96.21837059392433
506	2.525	-82.65780131397027	574.4508572581321	274.0963107479379	-138.01065318428442	423.9348179183172	24.46017745827918	-71.49269375886111	222.96586591514256	94.83648418200755
507	2.53	-82.63658007079134	574.1946829397288	274.0708391991399	-137.87766957422838	423.7439038374148	24.34205056573265	-71.5616741822115	222.20182631979026	93.48850550513453
508	2.535	-82.61413461015881	573.93934083385	274.0465623672273	-137.74723837888752	423.56022287323196	24.222428249875275	-71.6357663846026	221.47234422472815	92.17490619411758
509	2.54	-82.59048420280438	573.6849882742	274.0235095382772	-137.61951098362036	423.383705336208	24.10152185230116	-71.7147885074833	220.77673706556283	90.89609002015246
510	2.545	-82.56564991833564	573.4317771657257	274.00170708755905	-137.49462784353528	423.21426649527683	23.979541740369527	-71.79854507494379	220.11428556240688	89.65239277088263
511	2.55	-82.53965460693342	573.1798537311684	273.9811783722452	-137.37271831330668	423.05180736851037	23.85669646242116	-71.88682787462184	219.48423645855326	88.44408233064783
512	2.555	-82.51252287598935	572.9293582816098	273.9619436345728	-137.25390051352903	422.89621553998427	23.733191929146567	-71.97941686865829	218.88580528673577	87.27135896217843
513	2.56	-82.48428106175196	572.680425011624	273.9440199158774	-137.1382812335584	422.7473659985852	23.60923062478493	-72.07608113048096	218.31817915261377	86.13435578619996
514	2.565	-82.454957196065	572.4331818195301	273.9274209818744	-137.02595587062945	422.60512199447885	23.485010851605832	-72.17657980318475	217.780519525264	85.03313945464258
515	2.57	-82.42458096829681	572.1877501531281	273.91215725952026	-136.91700840487843	422.4693359089854	23.360726010883518	-72.28066307528664	217.27196502464668	83.96771101241033
516	2.575	-82.39318368257442	571.944244881182	273.89823578573987	-136.81151140975066	422.33985013365987	23.236563923318684	-72.38807316966674	216.79163419623927	82.93800694196139
517	2.58	-82.36079821045062	571.7027741907958	273.88566016825644	-136.7095260971255	422.2164979544432	23.112706191596736	-72.49854534156037	216.33862826329684	81.94390038428322
518	2.585	-82.32745893914684	571.4634395107145	273.8744305587141	-136.61110239635204	422.0991044368376	22.98932760749649	-72.61180888153916	215.91203384749932	80.98520252922161
519	2.59	-82.2932017155275	571.2263354604642	273.86454363823486	-136.5162790662593	421.9874873081741	22.866595605680956	-72.72758811950973	215.51092564908407	80.06166416754016
520	2.595	-82.25806378597586	570.9915498251361	273.85599261549845	-136.42508383908137	421.8814578331606	22.744669766013985	-72.84560342586613	215.1343690779349	79.17297739655251
521	2.6	-82.22208373235334	570.7591635555041	273.8487672373897	-136.33753359512573	421.7808216790502	22.623701365955615	-72.96557220605429	214.78142282750062	78.31877747068155
522	2.605	-82.1853014042369	570.5292507930623	273.84285381220195	-136.25363456690977	421.6853797669244	22.503832984295734	-73.08720988494177	214.45114138385037	77.49864478786428
523	2.61	-82.14775784764012	570.301878919461	273.8382352453398	-136.17338257139693	421.59492910576597	22.385198157192836	-73.21023087753309	214.14257746263274	76.71210700233574
